<svg xmlns="http://www.w3.org/2000/svg" xmlns:xlink="http://www.w3.org/1999/xlink" width="3000" zoomAndPan="magnify" viewBox="0 0 2250 2250.000011" height="3000" preserveAspectRatio="xMidYMid meet" version="1.2"><defs><clipPath id="68be1dea16"><path d="M 0.5 0 L 2249.5 0 L 2249.5 2249 L 0.5 2249 Z M 0.5 0 "/></clipPath><clipPath id="f955fc9a18"><path d="M 69 53.265625 L 2180 53.265625 L 2180 2195.8125 L 69 2195.8125 Z M 69 53.265625 "/></clipPath></defs><g id="d67d8d4bba"><g clip-rule="nonzero" clip-path="url(#68be1dea16)"><path style=" stroke:none;fill-rule:nonzero;fill:#ffffff;fill-opacity:1;" d="M 0.5 0 L 2249.5 0 L 2249.5 2249 L 0.5 2249 Z M 0.5 0 "/><path style=" stroke:none;fill-rule:nonzero;fill:#ffffff;fill-opacity:1;" d="M 0.5 0 L 2249.5 0 L 2249.5 2249 L 0.5 2249 Z M 0.5 0 "/></g><g clip-rule="nonzero" clip-path="url(#f955fc9a18)"><path style=" stroke:none;fill-rule:nonzero;fill:#4b5563;fill-opacity:1;" d="M 2179.980469 1310.527344 L 2060.4375 1124.5 L 2179.960938 938.472656 L 2004.363281 804.417969 L 2052.71875 588.832031 L 1841.636719 523.167969 L 1813.464844 303.886719 L 1592.660156 314.027344 L 1491.34375 117.691406 L 1287.542969 202.988281 L 1124.898438 53.265625 L 962.273438 202.988281 L 758.453125 117.691406 L 657.136719 314.042969 L 436.347656 303.886719 L 408.160156 523.167969 L 197.09375 588.832031 L 245.449219 804.417969 L 69.835938 938.472656 L 189.378906 1124.5 L 69.835938 1310.527344 L 245.449219 1444.582031 L 197.09375 1660.164062 L 408.160156 1725.8125 L 436.347656 1945.113281 L 657.136719 1934.953125 L 758.453125 2131.308594 L 962.273438 2046.011719 L 1124.898438 2195.730469 L 1287.542969 2046.011719 L 1491.34375 2131.308594 L 1592.660156 1934.953125 L 1813.464844 1945.113281 L 1841.636719 1725.8125 L 2052.71875 1660.164062 L 2004.363281 1444.582031 Z M 738.382812 737.984375 C 820.484375 655.902344 954.035156 655.902344 1036.121094 737.984375 C 1118.203125 820.070312 1118.203125 953.636719 1036.121094 1035.722656 C 995.078125 1076.761719 941.164062 1097.285156 887.253906 1097.285156 C 833.339844 1097.285156 779.425781 1076.761719 738.382812 1035.722656 C 656.316406 953.636719 656.316406 820.070312 738.382812 737.984375 Z M 845.589844 1492.566406 L 756.828125 1403.804688 L 1404.207031 756.429688 L 1492.984375 845.191406 Z M 1511.414062 1511.011719 C 1470.371094 1552.054688 1416.457031 1572.574219 1362.542969 1572.574219 C 1308.648438 1572.574219 1254.734375 1552.054688 1213.695312 1511.011719 C 1131.609375 1428.929688 1131.609375 1295.359375 1213.695312 1213.277344 C 1295.777344 1131.195312 1429.328125 1131.195312 1511.414062 1213.277344 C 1593.496094 1295.359375 1593.496094 1428.929688 1511.414062 1511.011719 "/></g><path style=" stroke:none;fill-rule:nonzero;fill:#4b5563;fill-opacity:1;" d="M 1422.652344 1302.039062 C 1406.082031 1285.484375 1384.320312 1277.199219 1362.542969 1277.199219 C 1340.785156 1277.199219 1319.027344 1285.46875 1302.457031 1302.039062 C 1269.3125 1335.179688 1269.3125 1389.109375 1302.457031 1422.25 C 1335.597656 1455.394531 1389.507812 1455.394531 1422.652344 1422.25 C 1455.792969 1389.109375 1455.792969 1335.179688 1422.652344 1302.039062 "/><path style=" stroke:none;fill-rule:nonzero;fill:#4b5563;fill-opacity:1;" d="M 947.359375 826.746094 C 930.789062 810.175781 909.027344 801.90625 887.253906 801.90625 C 865.492188 801.90625 843.734375 810.175781 827.164062 826.746094 C 794.019531 859.886719 794.019531 913.816406 827.164062 946.960938 C 860.304688 980.101562 914.21875 980.101562 947.359375 946.960938 C 980.5 913.800781 980.5 859.886719 947.359375 826.746094 "/></g></svg>