<svg viewBox="0 0 60 60" xmlns="http://www.w3.org/2000/svg"><path d="M59 4v35l-1 1H2l-1-1V4a3 3 0 0 1 3-3h52a3 3 0 0 1 3 3Z" fill="#3681b6" class="fill-2081e9"></path><path d="M19 46h22v6H19z" fill="#bac0cc" class="fill-bac0cc"></path><path d="m48 55-7-4H19l-7 4 1 2 34.345-.148L48 55zM59 39v5a3 3 0 0 1-3 3H4a3 3 0 0 1-3-3v-5Z" fill="#cdd1da" class="fill-cdd1da"></path><circle cx="49" cy="11" r="6" fill="#ffc436" class="fill-ffc436"></circle><path d="M12 55h36v3a1 1 0 0 1-1 1H13a1 1 0 0 1-1-1v-3Z" fill="#bac0cc" class="fill-bac0cc"></path><path d="M55 11h-6V5a6 6 0 0 1 6 6Z" fill="#38f2e6" class="fill-f33a4d"></path><path d="M32 44h-4a1 1 0 0 1 0-2h4a1 1 0 0 1 0 2Z" fill="#79818f" class="fill-79818f"></path><path d="M7 17a1 1 0 0 1-1-1v-5a1 1 0 0 1 2 0v5a1 1 0 0 1-1 1Z" fill="#ffc436" class="fill-ffc436"></path><path d="M15 17a1 1 0 0 1-1-1v-5a1 1 0 0 1 2 0v5a1 1 0 0 1-1 1Z" fill="#85f5b7" class="fill-f686c8"></path><path d="M11 17a1 1 0 0 1-1-1V6a1 1 0 0 1 2 0v10a1 1 0 0 1-1 1Z" fill="#54d1b4" class="fill-8ad256"></path><path d="M17 17H5a1 1 0 0 1 0-2h12a1 1 0 0 1 0 2Z" fill="#265372" class="fill-265372"></path><path d="M26 36a1 1 0 0 1-1-1V25a1 1 0 0 1 2 0v10a1 1 0 0 1-1 1Z" fill="#ffc436" class="fill-ffc436"></path><path d="M34 36a1 1 0 0 1-1-1v-5a1 1 0 0 1 2 0v5a1 1 0 0 1-1 1Z" fill="#85f5b7" class="fill-f686c8"></path><path d="M30 36a1 1 0 0 1-1-1v-6a1 1 0 0 1 2 0v6a1 1 0 0 1-1 1Z" fill="#54d1b4" class="fill-8ad256"></path><path d="M35 36H25a1 1 0 0 1 0-2h10a1 1 0 0 1 0 2Z" fill="#265372" class="fill-265372"></path><path d="M33 8h-7a1 1 0 0 1 0-2h7a1 1 0 0 1 0 2Z" fill="#ffc436" class="fill-ffc436"></path><path d="M30 16h-4a1 1 0 0 1 0-2h4a1 1 0 0 1 0 2Z" fill="#85f5b7" class="fill-f686c8"></path><path d="M34 12h-8a1 1 0 0 1 0-2h8a1 1 0 0 1 0 2Z" fill="#54d1b4" class="fill-8ad256"></path><path d="M26 18a1 1 0 0 1-1-1V5a1 1 0 0 1 2 0v12a1 1 0 0 1-1 1Z" fill="#265372" class="fill-265372"></path><path d="M54 27h-8a1 1 0 0 1 0-2h8a1 1 0 0 1 0 2Z" fill="#ffc436" class="fill-ffc436"></path><path d="M53 35h-7a1 1 0 0 1 0-2h7a1 1 0 0 1 0 2Z" fill="#85f5b7" class="fill-f686c8"></path><path d="M50 31h-4a1 1 0 0 1 0-2h4a1 1 0 0 1 0 2Z" fill="#54d1b4" class="fill-8ad256"></path><path d="M46 36a1 1 0 0 1-1-1V25a1 1 0 0 1 2 0v10a1 1 0 0 1-1 1Z" fill="#265372" class="fill-265372"></path><path d="M5 36a1 1 0 0 1-.831-1.555l4-6A1 1 0 0 1 8.973 28a1.051 1.051 0 0 1 .827.4l2.18 2.907 4.207-5.888a1 1 0 1 1 1.626 1.162l-5 7a1 1 0 0 1-.8.419H12a1 1 0 0 1-.8-.4l-2.152-2.87-3.216 4.825A1 1 0 0 1 5 36Z" fill="#ffc436" class="fill-ffc436"></path><path d="M59 20v2H40v17h-2V22H22v17h-2V22H1v-2h19V1h2v19h16V1h2v19h19z" fill="#3681b6" class="fill-006dd9"></path></svg>