<svg xmlns="http://www.w3.org/2000/svg" xmlns:xlink="http://www.w3.org/1999/xlink" width="3000" zoomAndPan="magnify" viewBox="0 0 2250 2250.000011" height="3000" preserveAspectRatio="xMidYMid meet" version="1.2"><defs><clipPath id="4c5dbdad84"><path d="M 0.5 0 L 2249.5 0 L 2249.5 2249 L 0.5 2249 Z M 0.5 0 "/></clipPath><clipPath id="b8cb3d8173"><path d="M 94.988281 94.488281 L 2155.011719 94.488281 L 2155.011719 2154.511719 L 94.988281 2154.511719 Z M 94.988281 94.488281 "/></clipPath><clipPath id="2f71f54a2e"><path d="M 1125 94.488281 C 556.140625 94.488281 94.988281 555.640625 94.988281 1124.5 C 94.988281 1693.359375 556.140625 2154.511719 1125 2154.511719 C 1693.859375 2154.511719 2155.011719 1693.359375 2155.011719 1124.5 C 2155.011719 555.640625 1693.859375 94.488281 1125 94.488281 Z M 1125 94.488281 "/></clipPath><clipPath id="170a943133"><path d="M 556.753906 583.222656 L 1693.199219 583.222656 L 1693.199219 1665.6875 L 556.753906 1665.6875 Z M 556.753906 583.222656 "/></clipPath></defs><g id="d5015580b5"><g clip-rule="nonzero" clip-path="url(#4c5dbdad84)"><path style=" stroke:none;fill-rule:nonzero;fill:#ffffff;fill-opacity:1;" d="M 0.5 0 L 2249.5 0 L 2249.5 2249 L 0.5 2249 Z M 0.5 0 "/><path style=" stroke:none;fill-rule:nonzero;fill:#ffffff;fill-opacity:1;" d="M 0.5 0 L 2249.5 0 L 2249.5 2249 L 0.5 2249 Z M 0.5 0 "/></g><g clip-rule="nonzero" clip-path="url(#b8cb3d8173)"><g clip-rule="nonzero" clip-path="url(#2f71f54a2e)"><path style=" stroke:none;fill-rule:nonzero;fill:#4b5563;fill-opacity:1;" d="M 94.988281 94.488281 L 2155.011719 94.488281 L 2155.011719 2154.511719 L 94.988281 2154.511719 Z M 94.988281 94.488281 "/></g></g><g clip-rule="nonzero" clip-path="url(#170a943133)"><path style=" stroke:none;fill-rule:nonzero;fill:#ffffff;fill-opacity:1;" d="M 1692.375 995.464844 C 1690.140625 988.570312 1683.730469 983.898438 1676.5 983.863281 L 1268.785156 981.886719 L 1140.914062 594.738281 C 1138.640625 587.871094 1132.214844 583.222656 1124.976562 583.222656 C 1117.738281 583.222656 1111.3125 587.871094 1109.039062 594.738281 L 981.167969 981.878906 L 573.453125 983.863281 C 566.210938 983.898438 559.8125 988.570312 557.578125 995.464844 C 555.339844 1002.347656 557.769531 1009.890625 563.601562 1014.175781 L 892.289062 1255.429688 L 768.179688 1643.792969 C 765.980469 1650.6875 768.441406 1658.222656 774.300781 1662.476562 C 780.164062 1666.734375 788.089844 1666.753906 793.964844 1662.53125 L 1124.976562 1424.484375 L 1455.984375 1662.53125 C 1461.863281 1666.753906 1469.789062 1666.734375 1475.640625 1662.476562 C 1481.503906 1658.222656 1483.972656 1650.695312 1481.773438 1643.792969 L 1357.664062 1255.429688 L 1686.339844 1014.175781 C 1692.183594 1009.890625 1694.613281 1002.347656 1692.375 995.464844 "/></g></g></svg>