<svg viewBox="0 0 32 32" xml:space="preserve" xmlns="http://www.w3.org/2000/svg" enable-background="new 0 0 32 32"><path d="M26 3H10C8.346 3 7 4.346 7 6v1H6c-1.654 0-3 1.346-3 3v16c0 1.654 1.346 3 3 3h16c1.654 0 3-1.346 3-3v-1h1c1.654 0 3-1.346 3-3V6c0-1.654-1.346-3-3-3zm-3 23c0 .551-.449 1-1 1H6c-.551 0-1-.449-1-1V10c0-.551.449-1 1-1h16c.551 0 1 .449 1 1v16zm4-4c0 .551-.449 1-1 1h-1V10c0-1.654-1.346-3-3-3H9V6c0-.551.449-1 1-1h16c.551 0 1 .449 1 1v16z" fill="#6b7280" class="fill-000000"></path><path d="M7.5 13h13a.5.5 0 0 0 .5-.5v-1a.5.5 0 0 0-.5-.5h-13a.5.5 0 0 0-.5.5v1a.5.5 0 0 0 .5.5zM7.5 17h13a.5.5 0 0 0 .5-.5v-1a.5.5 0 0 0-.5-.5h-13a.5.5 0 0 0-.5.5v1a.5.5 0 0 0 .5.5zM7.5 21h13a.5.5 0 0 0 .5-.5v-1a.5.5 0 0 0-.5-.5h-13a.5.5 0 0 0-.5.5v1a.5.5 0 0 0 .5.5zM7.5 25h13a.5.5 0 0 0 .5-.5v-1a.5.5 0 0 0-.5-.5h-13a.5.5 0 0 0-.5.5v1a.5.5 0 0 0 .5.5z" fill="#6b7280" class="fill-000000"></path></svg>