<svg data-name="Layer 1" viewBox="0 0 24 24" xmlns="http://www.w3.org/2000/svg"><path d="m7.323 11.333 1.09 1.334 1.91-2.334M12.5 11.5H16M7.323 16.333l1.09 1.334 1.91-2.334M12.5 16.5H16M16 5.5a2 2 0 0 0-2-2 2 2 0 0 0-4 0 2 2 0 0 0-2 2v1h8Z" fill="none" stroke="#0f1d2a" stroke-linecap="round" stroke-linejoin="round" class="stroke-000000"></path><path d="M17.5 4.5h1a1 1 0 0 1 1 1v15a1 1 0 0 1-1 1h-13a1 1 0 0 1-1-1v-15a1 1 0 0 1 1-1h1" fill="none" stroke="#0f1d2a" stroke-linecap="round" stroke-linejoin="round" class="stroke-000000"></path></svg>