<?xml version="1.0" standalone="no"?>
<!DOCTYPE svg PUBLIC "-//W3C//DTD SVG 20010904//EN"
 "http://www.w3.org/TR/2001/REC-SVG-20010904/DTD/svg10.dtd">
<svg version="1.0" xmlns="http://www.w3.org/2000/svg"
 width="184.000000pt" height="163.000000pt" viewBox="0 0 184.000000 163.000000"
 preserveAspectRatio="xMidYMid meet">

<g transform="translate(0.000000,163.000000) scale(0.100000,-0.100000)"
fill="#000000" stroke="none">
<path d="M802 1450 c-112 -29 -187 -74 -277 -165 -140 -139 -190 -267 -183
-465 4 -120 17 -164 46 -158 13 3 17 13 15 48 -5 162 -3 230 12 284 65 243
291 416 543 416 133 0 240 -34 350 -113 l42 -30 -31 -26 c-20 -17 -28 -32 -24
-42 8 -20 181 -77 195 -63 11 11 31 171 23 191 -7 19 -29 16 -73 -8 l-37 -21
-54 41 c-155 119 -359 160 -547 111z"/>
<path d="M735 1159 c-60 -32 -121 -96 -157 -166 l-33 -63 62 -62 63 -62 38 37
c23 23 47 37 63 37 26 0 69 -36 69 -58 0 -7 6 -12 13 -12 22 0 57 -44 57 -72
0 -14 9 -33 20 -43 11 -10 20 -30 20 -45 0 -15 7 -34 16 -41 24 -20 33 -51 22
-78 -7 -20 -4 -29 19 -53 31 -32 48 -35 62 -10 8 13 2 25 -27 54 -28 30 -33
41 -24 50 9 9 20 5 46 -21 20 -19 42 -31 52 -29 31 5 28 41 -6 73 -16 16 -30
35 -30 42 0 22 25 14 55 -17 32 -34 68 -37 73 -6 3 11 -12 35 -39 62 -36 37
-40 44 -25 50 12 5 29 -5 56 -31 40 -39 72 -44 78 -11 3 13 -40 62 -144 167
-82 82 -153 149 -158 149 -5 0 -31 -21 -58 -46 -43 -40 -53 -45 -81 -40 -42 8
-77 49 -77 89 0 24 11 42 47 79 l47 48 -24 25 c-29 30 -44 31 -95 4z"/>
<path d="M1141 1146 c-62 -63 -118 -69 -167 -15 -9 10 -24 19 -33 19 -9 0 -48
-32 -86 -70 -69 -70 -70 -71 -55 -98 26 -45 54 -40 120 21 l59 55 130 -131
130 -132 71 70 70 70 -44 65 c-44 67 -142 180 -155 180 -4 0 -22 -15 -40 -34z"/>
<path d="M1521 1026 c-10 -12 -10 -27 -2 -66 39 -179 -22 -382 -153 -512 -176
-177 -436 -219 -661 -107 -33 16 -75 42 -94 58 l-34 28 32 22 c49 35 41 57
-26 76 -32 9 -75 21 -97 28 -34 10 -40 9 -52 -8 -8 -10 -14 -35 -14 -56 0 -20
-3 -57 -6 -82 -9 -60 11 -70 71 -37 l42 23 52 -41 c118 -94 257 -137 416 -130
349 16 613 312 592 664 -7 122 -34 179 -66 140z"/>
<path d="M697 782 c-37 -37 -67 -73 -67 -79 0 -7 9 -17 20 -23 18 -10 29 -3
85 51 36 34 65 70 65 79 0 15 -18 40 -30 40 -3 0 -36 -30 -73 -68z"/>
<path d="M767 712 c-37 -37 -67 -73 -67 -79 0 -7 9 -17 20 -23 18 -10 29 -3
85 51 36 34 65 70 65 79 0 15 -18 40 -30 40 -3 0 -36 -30 -73 -68z"/>
<path d="M821 626 c-36 -36 -52 -60 -48 -70 11 -29 42 -17 96 38 46 47 52 57
41 70 -20 25 -32 20 -89 -38z"/>
<path d="M880 554 c-27 -25 -40 -44 -38 -58 5 -36 40 -30 83 14 32 33 38 44
29 57 -18 28 -31 26 -74 -13z"/>
</g>
</svg>
