<svg viewBox="0 0 50 50" xml:space="preserve" xmlns="http://www.w3.org/2000/svg"><path clip-rule="evenodd" d="M1.766 21.925c0-3.221 1.541-6.143 4.031-8.264 5.461-4.65 14.379-4.65 19.84 0 2.491 2.121 4.031 5.043 4.031 8.264 0 7.293-7.254 11.749-13.95 11.749-.75 0-1.449-.054-2.191-.141L5.541 38.03l1.718-6.746c-3.239-2.285-5.493-5.245-5.493-9.359m7.255 1.125a1.5 1.5 0 1 0 0 2.997 1.5 1.5 0 0 0 0-2.997zm6.695 0a1.5 1.5 0 1 0-.001 2.999 1.5 1.5 0 0 0 .001-2.999zm5.194 1.5a1.5 1.5 0 1 0 3-.001 1.5 1.5 0 0 0-3 .001zm12.576-6.382c3.849-1.463 8.576-.861 11.743 1.836 2.931 2.496 3.929 6.408 2.044 9.824-.839 1.521-1.882 2.41-3.263 3.385l1.228 4.817-5.734-3.228c-1.882.181-3.367.165-5.262-.406-1.599-.483-3.092-1.303-4.299-2.461-.714-.686-1.975.547-1.223 1.267 1.368 1.309 3.041 2.255 4.839 2.826 1.887.6 3.637.732 5.575.588l7.036 3.962 1.796 1.01-.509-1.996-1.441-5.659a10.85 10.85 0 0 0 2.802-3.257c2.294-4.156 1.128-8.967-2.45-12.012-3.661-3.118-9.046-3.843-13.499-2.147-.935.357-.347 2.018.617 1.651zm6.853 1.979c-1.348-1.143-3.684-1.017-4.978.13-.805.713-1.147 1.658-1.147 2.718 0 .536.365.907.909.867.455.001.808-.452.808-.884 0-.452.09-.901.339-1.284.582-.897 2.29-.968 2.993-.237.51.529.474 1.451.14 2.062-.262.475-.716.897-1.131 1.242-1.144.947-1.466 1.998-1.466 3.446 0 .496.36.855.857.855a.848.848 0 0 0 .858-.855c0-1.269.162-1.731 1.139-2.546.501-.418.984-.91 1.304-1.484.704-1.267.509-3.067-.625-4.03zM38.532 30.83c-.435-.501-1.319-.514-1.74.012-.365.453-.366 1.163.014 1.606.411.512 1.3.484 1.725-.008.391-.449.391-1.16.001-1.61zM4.659 12.322C1.781 14.773 0 18.168 0 21.925c0 4.058 2.079 7.649 5.253 10.086l-2.442 9.58 11.085-6.242a18.19 18.19 0 0 0 1.822.091c7.675 0 15.716-5.237 15.716-13.515 0-3.757-1.78-7.152-4.658-9.603-6.125-5.216-15.993-5.217-22.117 0z" fill-rule="evenodd" fill="#0f1d2a" class="fill-000000"></path></svg>