<svg viewBox="0 0 576 512" xmlns="http://www.w3.org/2000/svg"><path d="M483.5 256c-12.2 0-24.1-2-35.5-5.5V384H127.9V250.5c-11.4 3.5-23.4 5.5-35.55 5.5-5.45 0-10.9-.4-17.25-1.1-3.28-.5-7.08-2.1-11.1-3.2l.01 212.3c0 26.51 21.49 48 47.1 48h352.1c26.51 0 47.1-21.49 47.1-48l.036-212.3c-4.146 1.082-8.088 2.709-12.4 3.281C494.4 255.6 489 256 483.5 256zm64.1-152.2-57.32-90.68C485.175 4.97 476.07-.01 466.35-.01H109.6c-9.717 0-18.82 4.979-23.93 13.13L28.33 103.8c-29.59 46.83-3.41 111.9 51.9 119.4 3.98.5 8.07.8 12.13.8 26.14 0 49.29-11.38 65.19-28.97C173.4 212.6 196.7 224 222.7 224c26.14 0 49.29-11.38 65.19-28.97C303.8 212.6 327 224 353.1 224c26.17 0 49.29-11.38 65.19-28.97C434.2 212.6 457.4 224 483.4 224c4.141 0 8.113-.273 12.09-.793C551 215.8 577.3 150.7 547.6 103.8z" fill="#6c6c6c" class="fill-000000"></path></svg>