<svg xmlns="http://www.w3.org/2000/svg" xmlns:xlink="http://www.w3.org/1999/xlink" width="2000" zoomAndPan="magnify" viewBox="0 0 1500 1499.999933" height="2000" preserveAspectRatio="xMidYMid meet" version="1.0"><defs><clipPath id="fcba442e78"><path d="M 498 332.273438 L 1447.421875 332.273438 L 1447.421875 931 L 498 931 Z M 498 332.273438 " clip-rule="nonzero"/></clipPath><clipPath id="f10e2c9ff0"><path d="M 633 955 L 846 955 L 846 1167.773438 L 633 1167.773438 Z M 633 955 " clip-rule="nonzero"/></clipPath><clipPath id="372fbbcdc1"><path d="M 932 955 L 1145 955 L 1145 1167.773438 L 932 1167.773438 Z M 932 955 " clip-rule="nonzero"/></clipPath><clipPath id="65800dbddf"><path d="M 52.421875 694 L 601 694 L 601 759 L 52.421875 759 Z M 52.421875 694 " clip-rule="nonzero"/></clipPath></defs><g clip-path="url(#fcba442e78)"><path fill="#ffffff" d="M 1447.574219 495.601562 L 1351.113281 896.257812 C 1351.109375 897.207031 1351.058594 898.15625 1350.964844 899.101562 C 1350.867188 900.046875 1350.726562 900.984375 1350.539062 901.917969 C 1350.351562 902.847656 1350.117188 903.769531 1349.839844 904.679688 C 1349.5625 905.585938 1349.238281 906.480469 1348.875 907.359375 C 1348.507812 908.234375 1348.101562 909.09375 1347.652344 909.933594 C 1347.203125 910.769531 1346.714844 911.582031 1346.1875 912.375 C 1345.65625 913.164062 1345.089844 913.925781 1344.488281 914.660156 C 1343.882812 915.394531 1343.246094 916.097656 1342.574219 916.769531 C 1341.902344 917.441406 1341.199219 918.082031 1340.464844 918.683594 C 1339.730469 919.285156 1338.96875 919.851562 1338.175781 920.382812 C 1337.386719 920.910156 1336.574219 921.398438 1335.734375 921.847656 C 1334.898438 922.296875 1334.039062 922.707031 1333.164062 923.070312 C 1332.285156 923.4375 1331.390625 923.757812 1330.484375 924.035156 C 1329.574219 924.3125 1328.652344 924.546875 1327.722656 924.734375 C 1326.789062 924.921875 1325.851562 925.0625 1324.90625 925.160156 C 1323.960938 925.253906 1323.011719 925.304688 1322.058594 925.308594 L 672.082031 930.019531 C 671.132812 930.015625 670.183594 929.964844 669.238281 929.871094 C 668.292969 929.773438 667.355469 929.632812 666.421875 929.445312 C 665.492188 929.257812 664.570312 929.023438 663.660156 928.746094 C 662.753906 928.46875 661.859375 928.148438 660.980469 927.78125 C 660.101562 927.417969 659.246094 927.007812 658.40625 926.558594 C 657.570312 926.109375 656.757812 925.621094 655.964844 925.09375 C 655.175781 924.5625 654.414062 923.996094 653.679688 923.394531 C 652.945312 922.792969 652.242188 922.152344 651.570312 921.480469 C 650.898438 920.808594 650.257812 920.105469 649.65625 919.371094 C 649.050781 918.636719 648.488281 917.875 647.957031 917.082031 C 647.429688 916.292969 646.941406 915.480469 646.492188 914.640625 C 646.042969 913.804688 645.632812 912.945312 645.269531 912.070312 C 644.902344 911.191406 644.582031 910.296875 644.304688 909.390625 C 644.027344 908.480469 643.792969 907.558594 643.605469 906.628906 C 643.417969 905.695312 643.277344 904.757812 643.179688 903.8125 C 643.085938 902.867188 643.035156 901.917969 643.03125 900.964844 L 643.03125 495.550781 C 643.023438 494.757812 643.054688 493.964844 643.128906 493.171875 L 634.347656 414.730469 L 538.265625 414.730469 C 536.949219 414.679688 535.644531 414.5625 534.339844 414.386719 C 533.039062 414.207031 531.746094 413.96875 530.46875 413.667969 C 529.1875 413.367188 527.925781 413.003906 526.679688 412.582031 C 525.4375 412.160156 524.214844 411.679688 523.015625 411.140625 C 521.816406 410.601562 520.648438 410.007812 519.503906 409.355469 C 518.363281 408.703125 517.253906 408 516.179688 407.242188 C 515.105469 406.484375 514.070312 405.679688 513.074219 404.820312 C 512.078125 403.964844 511.125 403.0625 510.210938 402.117188 C 509.300781 401.167969 508.4375 400.179688 507.621094 399.148438 C 506.808594 398.117188 506.042969 397.050781 505.328125 395.945312 C 504.613281 394.84375 503.953125 393.707031 503.351562 392.539062 C 502.746094 391.375 502.195312 390.179688 501.707031 388.960938 C 501.214844 387.742188 500.785156 386.503906 500.410156 385.242188 C 500.039062 383.980469 499.726562 382.707031 499.476562 381.414062 C 499.226562 380.125 499.039062 378.824219 498.914062 377.515625 C 498.789062 376.207031 498.726562 374.898438 498.726562 373.582031 C 498.726562 372.269531 498.789062 370.957031 498.914062 369.648438 C 499.039062 368.339844 499.226562 367.039062 499.476562 365.75 C 499.726562 364.460938 500.039062 363.183594 500.410156 361.921875 C 500.785156 360.664062 501.214844 359.421875 501.707031 358.203125 C 502.195312 356.984375 502.746094 355.792969 503.351562 354.625 C 503.953125 353.457031 504.613281 352.324219 505.328125 351.21875 C 506.042969 350.113281 506.808594 349.046875 507.621094 348.015625 C 508.4375 346.988281 509.300781 345.996094 510.210938 345.050781 C 511.125 344.101562 512.078125 343.199219 513.074219 342.34375 C 514.070312 341.488281 515.105469 340.679688 516.179688 339.921875 C 517.253906 339.164062 518.363281 338.460938 519.503906 337.808594 C 520.648438 337.160156 521.816406 336.5625 523.015625 336.023438 C 524.214844 335.484375 525.4375 335.003906 526.679688 334.582031 C 527.925781 334.160156 529.1875 333.800781 530.46875 333.496094 C 531.746094 333.195312 533.039062 332.957031 534.339844 332.777344 C 535.644531 332.601562 536.949219 332.488281 538.265625 332.433594 L 707.863281 332.433594 C 707.878906 332.582031 707.878906 332.730469 707.863281 332.878906 L 717.039062 414.78125 L 722.851562 466.53125 L 1418.523438 466.53125 C 1419.472656 466.535156 1420.421875 466.585938 1421.367188 466.683594 C 1422.3125 466.777344 1423.253906 466.917969 1424.1875 467.109375 C 1425.117188 467.296875 1426.039062 467.527344 1426.949219 467.804688 C 1427.859375 468.085938 1428.75 468.40625 1429.628906 468.773438 C 1430.507812 469.136719 1431.363281 469.546875 1432.203125 469.996094 C 1433.039062 470.445312 1433.855469 470.933594 1434.644531 471.460938 C 1435.433594 471.992188 1436.199219 472.558594 1436.933594 473.160156 C 1437.667969 473.765625 1438.371094 474.402344 1439.042969 475.078125 C 1439.714844 475.75 1440.351562 476.453125 1440.957031 477.1875 C 1441.558594 477.921875 1442.125 478.6875 1442.652344 479.476562 C 1443.183594 480.265625 1443.671875 481.082031 1444.121094 481.917969 C 1444.570312 482.757812 1444.976562 483.617188 1445.34375 484.492188 C 1445.707031 485.371094 1446.027344 486.265625 1446.304688 487.175781 C 1446.582031 488.085938 1446.816406 489.003906 1447.003906 489.9375 C 1447.191406 490.871094 1447.332031 491.808594 1447.425781 492.753906 C 1447.523438 493.703125 1447.570312 494.648438 1447.574219 495.601562 Z M 1447.574219 495.601562 " fill-opacity="1" fill-rule="nonzero"/></g><g clip-path="url(#f10e2c9ff0)"><path fill="#ffffff" d="M 845.28125 1061.769531 C 845.28125 1063.503906 845.238281 1065.234375 845.152344 1066.964844 C 845.066406 1068.695312 844.9375 1070.421875 844.769531 1072.148438 C 844.601562 1073.871094 844.386719 1075.589844 844.132812 1077.304688 C 843.878906 1079.019531 843.582031 1080.722656 843.246094 1082.425781 C 842.90625 1084.125 842.527344 1085.8125 842.105469 1087.492188 C 841.6875 1089.175781 841.222656 1090.84375 840.722656 1092.5 C 840.21875 1094.160156 839.675781 1095.804688 839.089844 1097.4375 C 838.507812 1099.066406 837.882812 1100.683594 837.21875 1102.285156 C 836.558594 1103.882812 835.855469 1105.46875 835.113281 1107.035156 C 834.375 1108.601562 833.59375 1110.148438 832.777344 1111.675781 C 831.960938 1113.203125 831.109375 1114.710938 830.21875 1116.195312 C 829.328125 1117.683594 828.398438 1119.148438 827.4375 1120.585938 C 826.476562 1122.027344 825.476562 1123.445312 824.445312 1124.835938 C 823.414062 1126.226562 822.347656 1127.59375 821.25 1128.933594 C 820.148438 1130.269531 819.019531 1131.582031 817.855469 1132.867188 C 816.691406 1134.148438 815.496094 1135.40625 814.273438 1136.628906 C 813.046875 1137.855469 811.792969 1139.050781 810.507812 1140.214844 C 809.222656 1141.375 807.914062 1142.507812 806.574219 1143.605469 C 805.234375 1144.707031 803.867188 1145.773438 802.476562 1146.804688 C 801.085938 1147.835938 799.667969 1148.832031 798.230469 1149.796875 C 796.789062 1150.757812 795.324219 1151.683594 793.839844 1152.574219 C 792.351562 1153.464844 790.84375 1154.320312 789.316406 1155.136719 C 787.789062 1155.953125 786.242188 1156.734375 784.675781 1157.472656 C 783.109375 1158.214844 781.527344 1158.914062 779.925781 1159.578125 C 778.324219 1160.242188 776.707031 1160.867188 775.078125 1161.449219 C 773.445312 1162.03125 771.800781 1162.578125 770.144531 1163.078125 C 768.484375 1163.582031 766.816406 1164.042969 765.136719 1164.464844 C 763.453125 1164.886719 761.765625 1165.265625 760.066406 1165.601562 C 758.367188 1165.941406 756.660156 1166.238281 754.945312 1166.492188 C 753.230469 1166.746094 751.511719 1166.957031 749.789062 1167.128906 C 748.066406 1167.296875 746.335938 1167.425781 744.605469 1167.511719 C 742.875 1167.59375 741.144531 1167.636719 739.410156 1167.636719 C 737.679688 1167.636719 735.949219 1167.59375 734.21875 1167.511719 C 732.488281 1167.425781 730.757812 1167.296875 729.035156 1167.128906 C 727.3125 1166.957031 725.59375 1166.746094 723.878906 1166.492188 C 722.164062 1166.238281 720.457031 1165.941406 718.757812 1165.601562 C 717.058594 1165.265625 715.367188 1164.886719 713.6875 1164.464844 C 712.007812 1164.042969 710.339844 1163.582031 708.679688 1163.078125 C 707.023438 1162.578125 705.378906 1162.03125 703.746094 1161.449219 C 702.113281 1160.867188 700.5 1160.242188 698.898438 1159.578125 C 697.296875 1158.914062 695.714844 1158.214844 694.148438 1157.472656 C 692.582031 1156.734375 691.035156 1155.953125 689.507812 1155.136719 C 687.976562 1154.320312 686.472656 1153.464844 684.984375 1152.574219 C 683.5 1151.683594 682.035156 1150.757812 680.59375 1149.796875 C 679.15625 1148.832031 677.738281 1147.835938 676.347656 1146.804688 C 674.957031 1145.773438 673.589844 1144.707031 672.25 1143.605469 C 670.910156 1142.507812 669.597656 1141.375 668.316406 1140.214844 C 667.03125 1139.050781 665.777344 1137.855469 664.550781 1136.628906 C 663.328125 1135.40625 662.132812 1134.148438 660.96875 1132.867188 C 659.804688 1131.582031 658.675781 1130.269531 657.574219 1128.933594 C 656.476562 1127.59375 655.410156 1126.226562 654.378906 1124.835938 C 653.347656 1123.445312 652.347656 1122.027344 651.386719 1120.585938 C 650.421875 1119.144531 649.496094 1117.683594 648.605469 1116.195312 C 647.714844 1114.710938 646.863281 1113.203125 646.046875 1111.675781 C 645.230469 1110.148438 644.449219 1108.601562 643.710938 1107.035156 C 642.96875 1105.46875 642.265625 1103.882812 641.601562 1102.285156 C 640.941406 1100.683594 640.316406 1099.066406 639.734375 1097.4375 C 639.148438 1095.804688 638.605469 1094.160156 638.101562 1092.503906 C 637.601562 1090.84375 637.136719 1089.175781 636.71875 1087.492188 C 636.296875 1085.8125 635.917969 1084.125 635.578125 1082.425781 C 635.242188 1080.726562 634.945312 1079.019531 634.691406 1077.304688 C 634.4375 1075.589844 634.222656 1073.871094 634.054688 1072.148438 C 633.882812 1070.421875 633.757812 1068.695312 633.671875 1066.964844 C 633.585938 1065.234375 633.542969 1063.503906 633.542969 1061.769531 C 633.542969 1060.039062 633.585938 1058.304688 633.671875 1056.574219 C 633.757812 1054.84375 633.882812 1053.117188 634.054688 1051.394531 C 634.222656 1049.667969 634.4375 1047.949219 634.691406 1046.234375 C 634.945312 1044.523438 635.242188 1042.816406 635.578125 1041.117188 C 635.917969 1039.417969 636.296875 1037.726562 636.71875 1036.046875 C 637.136719 1034.367188 637.601562 1032.695312 638.101562 1031.039062 C 638.605469 1029.378906 639.148438 1027.734375 639.734375 1026.105469 C 640.316406 1024.472656 640.941406 1022.855469 641.601562 1021.257812 C 642.265625 1019.65625 642.96875 1018.074219 643.710938 1016.507812 C 644.449219 1014.941406 645.230469 1013.394531 646.046875 1011.863281 C 646.863281 1010.335938 647.714844 1008.828125 648.605469 1007.34375 C 649.496094 1005.855469 650.425781 1004.394531 651.386719 1002.953125 C 652.347656 1001.511719 653.347656 1000.097656 654.378906 998.703125 C 655.410156 997.3125 656.476562 995.949219 657.574219 994.609375 C 658.675781 993.269531 659.804688 991.957031 660.96875 990.675781 C 662.132812 989.390625 663.328125 988.136719 664.550781 986.910156 C 665.777344 985.6875 667.03125 984.492188 668.316406 983.328125 C 669.597656 982.164062 670.910156 981.03125 672.25 979.933594 C 673.589844 978.835938 674.957031 977.769531 676.347656 976.738281 C 677.738281 975.703125 679.15625 974.707031 680.59375 973.746094 C 682.035156 972.78125 683.5 971.855469 684.984375 970.964844 C 686.472656 970.074219 687.976562 969.21875 689.507812 968.402344 C 691.035156 967.585938 692.582031 966.808594 694.148438 966.066406 C 695.714844 965.328125 697.296875 964.625 698.898438 963.960938 C 700.5 963.296875 702.113281 962.675781 703.746094 962.089844 C 705.378906 961.507812 707.023438 960.964844 708.679688 960.460938 C 710.339844 959.957031 712.007812 959.496094 713.6875 959.074219 C 715.367188 958.65625 717.058594 958.273438 718.757812 957.9375 C 720.457031 957.597656 722.164062 957.304688 723.878906 957.046875 C 725.59375 956.792969 727.3125 956.582031 729.035156 956.414062 C 730.757812 956.242188 732.488281 956.117188 734.21875 956.03125 C 735.949219 955.945312 737.679688 955.902344 739.410156 955.902344 C 741.144531 955.902344 742.875 955.945312 744.605469 956.03125 C 746.335938 956.117188 748.066406 956.242188 749.789062 956.414062 C 751.511719 956.582031 753.230469 956.792969 754.945312 957.046875 C 756.660156 957.304688 758.367188 957.597656 760.066406 957.9375 C 761.765625 958.273438 763.453125 958.65625 765.136719 959.074219 C 766.816406 959.496094 768.484375 959.957031 770.144531 960.460938 C 771.800781 960.964844 773.445312 961.507812 775.078125 962.089844 C 776.707031 962.675781 778.324219 963.296875 779.925781 963.960938 C 781.527344 964.625 783.109375 965.328125 784.675781 966.066406 C 786.242188 966.808594 787.789062 967.585938 789.316406 968.402344 C 790.84375 969.21875 792.351562 970.074219 793.839844 970.964844 C 795.324219 971.855469 796.789062 972.78125 798.230469 973.746094 C 799.667969 974.707031 801.085938 975.703125 802.476562 976.738281 C 803.867188 977.769531 805.234375 978.835938 806.574219 979.933594 C 807.914062 981.03125 809.222656 982.164062 810.507812 983.328125 C 811.792969 984.492188 813.046875 985.6875 814.273438 986.910156 C 815.496094 988.136719 816.691406 989.390625 817.855469 990.675781 C 819.019531 991.957031 820.148438 993.269531 821.25 994.609375 C 822.347656 995.949219 823.414062 997.3125 824.445312 998.703125 C 825.476562 1000.097656 826.476562 1001.511719 827.4375 1002.953125 C 828.398438 1004.394531 829.328125 1005.855469 830.21875 1007.34375 C 831.109375 1008.828125 831.960938 1010.335938 832.777344 1011.863281 C 833.59375 1013.394531 834.375 1014.941406 835.113281 1016.507812 C 835.855469 1018.074219 836.558594 1019.65625 837.21875 1021.257812 C 837.882812 1022.855469 838.507812 1024.472656 839.089844 1026.105469 C 839.675781 1027.734375 840.21875 1029.378906 840.722656 1031.039062 C 841.222656 1032.695312 841.6875 1034.367188 842.105469 1036.046875 C 842.527344 1037.726562 842.90625 1039.417969 843.246094 1041.117188 C 843.582031 1042.816406 843.878906 1044.523438 844.132812 1046.234375 C 844.386719 1047.949219 844.601562 1049.667969 844.769531 1051.394531 C 844.9375 1053.117188 845.066406 1054.84375 845.152344 1056.574219 C 845.238281 1058.304688 845.28125 1060.039062 845.28125 1061.769531 Z M 845.28125 1061.769531 " fill-opacity="1" fill-rule="nonzero"/></g><g clip-path="url(#372fbbcdc1)"><path fill="#ffffff" d="M 1144.070312 1061.769531 C 1144.070312 1063.503906 1144.03125 1065.234375 1143.945312 1066.964844 C 1143.859375 1068.695312 1143.730469 1070.421875 1143.5625 1072.148438 C 1143.390625 1073.871094 1143.179688 1075.589844 1142.925781 1077.304688 C 1142.671875 1079.019531 1142.375 1080.722656 1142.039062 1082.425781 C 1141.699219 1084.125 1141.320312 1085.8125 1140.898438 1087.492188 C 1140.476562 1089.175781 1140.015625 1090.84375 1139.511719 1092.5 C 1139.011719 1094.160156 1138.46875 1095.804688 1137.882812 1097.4375 C 1137.300781 1099.066406 1136.675781 1100.683594 1136.011719 1102.285156 C 1135.351562 1103.882812 1134.648438 1105.46875 1133.90625 1107.035156 C 1133.167969 1108.601562 1132.386719 1110.148438 1131.570312 1111.675781 C 1130.753906 1113.203125 1129.902344 1114.710938 1129.007812 1116.195312 C 1128.117188 1117.683594 1127.191406 1119.148438 1126.230469 1120.585938 C 1125.265625 1122.027344 1124.269531 1123.445312 1123.238281 1124.835938 C 1122.207031 1126.226562 1121.140625 1127.59375 1120.042969 1128.933594 C 1118.941406 1130.269531 1117.8125 1131.582031 1116.648438 1132.867188 C 1115.484375 1134.148438 1114.289062 1135.40625 1113.0625 1136.628906 C 1111.839844 1137.855469 1110.585938 1139.050781 1109.300781 1140.214844 C 1108.015625 1141.375 1106.707031 1142.507812 1105.367188 1143.605469 C 1104.027344 1144.707031 1102.660156 1145.773438 1101.269531 1146.804688 C 1099.878906 1147.835938 1098.460938 1148.832031 1097.019531 1149.796875 C 1095.582031 1150.757812 1094.117188 1151.683594 1092.632812 1152.574219 C 1091.144531 1153.464844 1089.636719 1154.320312 1088.109375 1155.136719 C 1086.582031 1155.953125 1085.035156 1156.734375 1083.46875 1157.472656 C 1081.902344 1158.214844 1080.320312 1158.914062 1078.71875 1159.578125 C 1077.117188 1160.242188 1075.5 1160.867188 1073.871094 1161.449219 C 1072.238281 1162.03125 1070.59375 1162.578125 1068.9375 1163.078125 C 1067.277344 1163.582031 1065.609375 1164.042969 1063.929688 1164.464844 C 1062.246094 1164.886719 1060.558594 1165.265625 1058.859375 1165.601562 C 1057.160156 1165.941406 1055.453125 1166.238281 1053.738281 1166.492188 C 1052.023438 1166.746094 1050.304688 1166.957031 1048.582031 1167.128906 C 1046.855469 1167.296875 1045.128906 1167.425781 1043.398438 1167.511719 C 1041.667969 1167.59375 1039.9375 1167.636719 1038.203125 1167.636719 C 1036.472656 1167.636719 1034.742188 1167.59375 1033.007812 1167.511719 C 1031.277344 1167.425781 1029.550781 1167.296875 1027.828125 1167.128906 C 1026.101562 1166.957031 1024.382812 1166.746094 1022.671875 1166.492188 C 1020.957031 1166.238281 1019.25 1165.941406 1017.550781 1165.601562 C 1015.851562 1165.265625 1014.160156 1164.886719 1012.480469 1164.464844 C 1010.800781 1164.042969 1009.128906 1163.582031 1007.472656 1163.078125 C 1005.816406 1162.578125 1004.171875 1162.03125 1002.539062 1161.449219 C 1000.90625 1160.867188 999.292969 1160.242188 997.691406 1159.578125 C 996.089844 1158.914062 994.507812 1158.214844 992.941406 1157.472656 C 991.375 1156.734375 989.828125 1155.953125 988.296875 1155.136719 C 986.769531 1154.320312 985.261719 1153.464844 983.777344 1152.574219 C 982.292969 1151.683594 980.828125 1150.757812 979.386719 1149.796875 C 977.945312 1148.832031 976.53125 1147.835938 975.140625 1146.804688 C 973.746094 1145.773438 972.382812 1144.707031 971.042969 1143.605469 C 969.703125 1142.507812 968.390625 1141.375 967.109375 1140.214844 C 965.824219 1139.050781 964.570312 1137.855469 963.34375 1136.628906 C 962.121094 1135.40625 960.925781 1134.148438 959.761719 1132.867188 C 958.597656 1131.582031 957.464844 1130.269531 956.367188 1128.933594 C 955.269531 1127.59375 954.203125 1126.226562 953.171875 1124.835938 C 952.136719 1123.445312 951.140625 1122.027344 950.179688 1120.585938 C 949.214844 1119.144531 948.289062 1117.683594 947.398438 1116.195312 C 946.507812 1114.710938 945.652344 1113.203125 944.835938 1111.675781 C 944.019531 1110.148438 943.242188 1108.601562 942.5 1107.035156 C 941.761719 1105.46875 941.058594 1103.882812 940.394531 1102.285156 C 939.734375 1100.683594 939.109375 1099.066406 938.523438 1097.4375 C 937.941406 1095.804688 937.398438 1094.160156 936.894531 1092.503906 C 936.390625 1090.84375 935.929688 1089.175781 935.507812 1087.492188 C 935.089844 1085.8125 934.710938 1084.125 934.371094 1082.425781 C 934.03125 1080.726562 933.738281 1079.019531 933.484375 1077.304688 C 933.230469 1075.589844 933.015625 1073.871094 932.847656 1072.148438 C 932.675781 1070.421875 932.550781 1068.695312 932.464844 1066.964844 C 932.378906 1065.234375 932.335938 1063.503906 932.335938 1061.769531 C 932.335938 1060.039062 932.378906 1058.304688 932.464844 1056.574219 C 932.550781 1054.84375 932.675781 1053.117188 932.847656 1051.394531 C 933.015625 1049.667969 933.230469 1047.949219 933.484375 1046.234375 C 933.738281 1044.523438 934.03125 1042.816406 934.371094 1041.117188 C 934.710938 1039.417969 935.089844 1037.726562 935.507812 1036.046875 C 935.929688 1034.367188 936.390625 1032.695312 936.894531 1031.039062 C 937.398438 1029.378906 937.941406 1027.734375 938.527344 1026.105469 C 939.109375 1024.472656 939.734375 1022.855469 940.394531 1021.257812 C 941.058594 1019.65625 941.761719 1018.074219 942.5 1016.507812 C 943.242188 1014.941406 944.019531 1013.394531 944.835938 1011.863281 C 945.65625 1010.335938 946.507812 1008.828125 947.398438 1007.34375 C 948.289062 1005.855469 949.214844 1004.394531 950.179688 1002.953125 C 951.140625 1001.511719 952.136719 1000.097656 953.171875 998.703125 C 954.203125 997.3125 955.269531 995.949219 956.367188 994.609375 C 957.464844 993.269531 958.597656 991.957031 959.761719 990.675781 C 960.925781 989.390625 962.121094 988.136719 963.34375 986.910156 C 964.570312 985.6875 965.824219 984.492188 967.109375 983.328125 C 968.390625 982.164062 969.703125 981.03125 971.042969 979.933594 C 972.382812 978.835938 973.746094 977.769531 975.140625 976.738281 C 976.53125 975.703125 977.945312 974.707031 979.386719 973.746094 C 980.828125 972.78125 982.292969 971.855469 983.777344 970.964844 C 985.265625 970.074219 986.769531 969.21875 988.300781 968.402344 C 989.828125 967.585938 991.375 966.808594 992.941406 966.066406 C 994.507812 965.328125 996.089844 964.625 997.691406 963.960938 C 999.292969 963.296875 1000.90625 962.675781 1002.539062 962.089844 C 1004.171875 961.507812 1005.816406 960.964844 1007.472656 960.460938 C 1009.128906 959.957031 1010.800781 959.496094 1012.480469 959.074219 C 1014.160156 958.65625 1015.851562 958.273438 1017.550781 957.9375 C 1019.25 957.597656 1020.957031 957.304688 1022.671875 957.046875 C 1024.382812 956.792969 1026.101562 956.582031 1027.828125 956.414062 C 1029.550781 956.242188 1031.277344 956.117188 1033.007812 956.03125 C 1034.742188 955.945312 1036.472656 955.902344 1038.203125 955.902344 C 1039.9375 955.902344 1041.667969 955.945312 1043.398438 956.03125 C 1045.128906 956.117188 1046.855469 956.242188 1048.582031 956.414062 C 1050.304688 956.582031 1052.023438 956.792969 1053.738281 957.046875 C 1055.453125 957.304688 1057.160156 957.597656 1058.859375 957.9375 C 1060.558594 958.273438 1062.246094 958.65625 1063.929688 959.074219 C 1065.609375 959.496094 1067.277344 959.957031 1068.9375 960.460938 C 1070.59375 960.964844 1072.238281 961.507812 1073.871094 962.089844 C 1075.5 962.675781 1077.117188 963.296875 1078.71875 963.960938 C 1080.320312 964.625 1081.902344 965.328125 1083.46875 966.066406 C 1085.035156 966.808594 1086.582031 967.585938 1088.109375 968.402344 C 1089.636719 969.21875 1091.144531 970.074219 1092.632812 970.964844 C 1094.117188 971.855469 1095.582031 972.78125 1097.019531 973.746094 C 1098.460938 974.707031 1099.878906 975.703125 1101.269531 976.738281 C 1102.660156 977.769531 1104.027344 978.835938 1105.367188 979.933594 C 1106.703125 981.03125 1108.015625 982.164062 1109.300781 983.328125 C 1110.585938 984.492188 1111.839844 985.6875 1113.0625 986.910156 C 1114.289062 988.136719 1115.484375 989.390625 1116.648438 990.675781 C 1117.8125 991.957031 1118.941406 993.269531 1120.042969 994.609375 C 1121.140625 995.949219 1122.207031 997.3125 1123.238281 998.703125 C 1124.269531 1000.097656 1125.265625 1001.511719 1126.230469 1002.953125 C 1127.191406 1004.394531 1128.117188 1005.855469 1129.007812 1007.34375 C 1129.902344 1008.828125 1130.753906 1010.335938 1131.570312 1011.863281 C 1132.386719 1013.394531 1133.167969 1014.941406 1133.90625 1016.507812 C 1134.648438 1018.074219 1135.351562 1019.65625 1136.011719 1021.257812 C 1136.675781 1022.855469 1137.300781 1024.472656 1137.882812 1026.105469 C 1138.46875 1027.734375 1139.011719 1029.378906 1139.511719 1031.039062 C 1140.015625 1032.695312 1140.476562 1034.367188 1140.898438 1036.046875 C 1141.320312 1037.726562 1141.699219 1039.417969 1142.039062 1041.117188 C 1142.375 1042.816406 1142.671875 1044.523438 1142.925781 1046.234375 C 1143.179688 1047.949219 1143.390625 1049.667969 1143.5625 1051.394531 C 1143.730469 1053.117188 1143.859375 1054.84375 1143.945312 1056.574219 C 1144.03125 1058.304688 1144.070312 1060.039062 1144.070312 1061.769531 Z M 1144.070312 1061.769531 " fill-opacity="1" fill-rule="nonzero"/></g><path fill="#ffffff" d="M 330.042969 501.820312 L 572.371094 501.820312 C 573.296875 501.820312 574.21875 501.867188 575.136719 501.957031 C 576.058594 502.046875 576.972656 502.183594 577.878906 502.363281 C 578.785156 502.542969 579.679688 502.769531 580.566406 503.039062 C 581.449219 503.304688 582.320312 503.617188 583.175781 503.972656 C 584.027344 504.324219 584.863281 504.71875 585.679688 505.15625 C 586.496094 505.589844 587.285156 506.066406 588.054688 506.578125 C 588.824219 507.09375 589.566406 507.644531 590.28125 508.230469 C 590.996094 508.816406 591.679688 509.4375 592.332031 510.089844 C 592.988281 510.746094 593.609375 511.429688 594.195312 512.144531 C 594.78125 512.859375 595.332031 513.601562 595.84375 514.367188 C 596.359375 515.136719 596.832031 515.929688 597.269531 516.746094 C 597.703125 517.558594 598.101562 518.394531 598.453125 519.25 C 598.808594 520.105469 599.117188 520.972656 599.386719 521.859375 C 599.65625 522.742188 599.878906 523.636719 600.058594 524.546875 C 600.242188 525.453125 600.375 526.367188 600.464844 527.285156 C 600.558594 528.207031 600.601562 529.128906 600.601562 530.054688 L 600.601562 537.109375 C 600.601562 538.035156 600.558594 538.957031 600.464844 539.878906 C 600.375 540.796875 600.242188 541.710938 600.058594 542.617188 C 599.878906 543.527344 599.65625 544.421875 599.386719 545.304688 C 599.117188 546.191406 598.808594 547.058594 598.453125 547.914062 C 598.101562 548.769531 597.703125 549.605469 597.269531 550.417969 C 596.832031 551.234375 596.359375 552.027344 595.84375 552.796875 C 595.332031 553.5625 594.78125 554.304688 594.195312 555.019531 C 593.609375 555.734375 592.988281 556.417969 592.332031 557.074219 C 591.679688 557.726562 590.996094 558.347656 590.28125 558.933594 C 589.566406 559.519531 588.824219 560.070312 588.054688 560.585938 C 587.285156 561.097656 586.496094 561.574219 585.679688 562.007812 C 584.863281 562.445312 584.027344 562.839844 583.175781 563.191406 C 582.320312 563.546875 581.449219 563.859375 580.566406 564.125 C 579.679688 564.394531 578.785156 564.621094 577.878906 564.800781 C 576.972656 564.980469 576.058594 565.117188 575.136719 565.207031 C 574.21875 565.296875 573.296875 565.34375 572.371094 565.34375 L 330.042969 565.34375 C 329.117188 565.34375 328.195312 565.296875 327.273438 565.207031 C 326.355469 565.117188 325.441406 564.980469 324.535156 564.800781 C 323.628906 564.621094 322.730469 564.394531 321.847656 564.125 C 320.960938 563.859375 320.09375 563.546875 319.238281 563.191406 C 318.382812 562.839844 317.546875 562.445312 316.734375 562.007812 C 315.917969 561.574219 315.125 561.097656 314.355469 560.585938 C 313.589844 560.070312 312.847656 559.519531 312.132812 558.933594 C 311.417969 558.347656 310.734375 557.726562 310.078125 557.074219 C 309.425781 556.417969 308.804688 555.734375 308.21875 555.019531 C 307.632812 554.304688 307.082031 553.5625 306.566406 552.796875 C 306.054688 552.027344 305.578125 551.234375 305.144531 550.417969 C 304.707031 549.605469 304.3125 548.769531 303.960938 547.914062 C 303.605469 547.058594 303.292969 546.191406 303.027344 545.304688 C 302.757812 544.421875 302.53125 543.527344 302.351562 542.617188 C 302.171875 541.710938 302.035156 540.796875 301.945312 539.878906 C 301.855469 538.957031 301.808594 538.035156 301.808594 537.109375 L 301.808594 530.054688 C 301.808594 529.128906 301.855469 528.207031 301.945312 527.285156 C 302.035156 526.367188 302.171875 525.453125 302.351562 524.546875 C 302.53125 523.640625 302.757812 522.742188 303.027344 521.859375 C 303.292969 520.972656 303.605469 520.105469 303.960938 519.25 C 304.3125 518.394531 304.707031 517.558594 305.144531 516.746094 C 305.578125 515.929688 306.054688 515.136719 306.566406 514.367188 C 307.082031 513.601562 307.632812 512.859375 308.21875 512.144531 C 308.804688 511.429688 309.425781 510.746094 310.078125 510.089844 C 310.734375 509.4375 311.417969 508.816406 312.132812 508.230469 C 312.847656 507.644531 313.589844 507.09375 314.355469 506.578125 C 315.125 506.066406 315.917969 505.589844 316.734375 505.15625 C 317.546875 504.71875 318.382812 504.324219 319.238281 503.972656 C 320.09375 503.617188 320.960938 503.304688 321.847656 503.039062 C 322.730469 502.769531 323.628906 502.542969 324.535156 502.363281 C 325.441406 502.183594 326.355469 502.046875 327.273438 501.957031 C 328.195312 501.867188 329.117188 501.820312 330.042969 501.820312 Z M 330.042969 501.820312 " fill-opacity="1" fill-rule="nonzero"/><path fill="#ffffff" d="M 330.042969 897.078125 L 572.371094 897.078125 C 573.296875 897.078125 574.21875 897.121094 575.136719 897.210938 C 576.058594 897.304688 576.972656 897.4375 577.878906 897.617188 C 578.785156 897.800781 579.679688 898.023438 580.566406 898.292969 C 581.449219 898.5625 582.320312 898.871094 583.175781 899.226562 C 584.027344 899.578125 584.863281 899.972656 585.679688 900.410156 C 586.496094 900.847656 587.285156 901.320312 588.054688 901.835938 C 588.824219 902.347656 589.566406 902.898438 590.28125 903.484375 C 590.996094 904.070312 591.679688 904.691406 592.332031 905.34375 C 592.988281 906 593.609375 906.683594 594.195312 907.398438 C 594.78125 908.113281 595.332031 908.855469 595.84375 909.625 C 596.359375 910.390625 596.832031 911.183594 597.269531 912 C 597.703125 912.816406 598.101562 913.648438 598.453125 914.503906 C 598.808594 915.359375 599.117188 916.226562 599.386719 917.113281 C 599.65625 917.996094 599.878906 918.894531 600.058594 919.800781 C 600.242188 920.707031 600.375 921.621094 600.464844 922.539062 C 600.558594 923.460938 600.601562 924.382812 600.601562 925.308594 L 600.601562 932.367188 C 600.601562 933.289062 600.558594 934.214844 600.464844 935.132812 C 600.375 936.054688 600.242188 936.964844 600.058594 937.875 C 599.878906 938.78125 599.65625 939.675781 599.386719 940.5625 C 599.117188 941.445312 598.808594 942.316406 598.453125 943.167969 C 598.101562 944.023438 597.703125 944.859375 597.269531 945.675781 C 596.832031 946.488281 596.359375 947.28125 595.84375 948.050781 C 595.332031 948.820312 594.78125 949.5625 594.195312 950.277344 C 593.609375 950.992188 592.988281 951.675781 592.332031 952.328125 C 591.679688 952.980469 590.996094 953.601562 590.28125 954.1875 C 589.566406 954.777344 588.824219 955.324219 588.054688 955.839844 C 587.285156 956.351562 586.496094 956.828125 585.679688 957.265625 C 584.863281 957.699219 584.027344 958.09375 583.175781 958.449219 C 582.320312 958.800781 581.449219 959.113281 580.566406 959.382812 C 579.679688 959.648438 578.785156 959.875 577.878906 960.054688 C 576.972656 960.234375 576.058594 960.371094 575.136719 960.460938 C 574.21875 960.550781 573.296875 960.597656 572.371094 960.597656 L 330.042969 960.597656 C 329.117188 960.597656 328.195312 960.550781 327.273438 960.460938 C 326.355469 960.371094 325.441406 960.234375 324.535156 960.054688 C 323.628906 959.875 322.730469 959.648438 321.847656 959.382812 C 320.960938 959.113281 320.09375 958.800781 319.238281 958.449219 C 318.382812 958.09375 317.546875 957.699219 316.734375 957.261719 C 315.917969 956.828125 315.125 956.351562 314.355469 955.839844 C 313.589844 955.324219 312.847656 954.777344 312.132812 954.1875 C 311.417969 953.601562 310.734375 952.980469 310.078125 952.328125 C 309.425781 951.675781 308.804688 950.992188 308.21875 950.277344 C 307.632812 949.5625 307.082031 948.820312 306.566406 948.050781 C 306.054688 947.28125 305.578125 946.488281 305.144531 945.675781 C 304.707031 944.859375 304.3125 944.023438 303.960938 943.167969 C 303.605469 942.316406 303.292969 941.445312 303.027344 940.5625 C 302.757812 939.675781 302.53125 938.78125 302.351562 937.875 C 302.171875 936.964844 302.035156 936.054688 301.945312 935.132812 C 301.855469 934.214844 301.808594 933.289062 301.808594 932.367188 L 301.808594 925.308594 C 301.808594 924.382812 301.855469 923.460938 301.945312 922.539062 C 302.035156 921.621094 302.171875 920.707031 302.351562 919.800781 C 302.53125 918.894531 302.757812 917.996094 303.027344 917.113281 C 303.292969 916.226562 303.605469 915.359375 303.960938 914.503906 C 304.3125 913.648438 304.707031 912.816406 305.144531 912 C 305.578125 911.183594 306.054688 910.390625 306.566406 909.625 C 307.082031 908.855469 307.632812 908.113281 308.21875 907.398438 C 308.804688 906.683594 309.425781 906 310.078125 905.34375 C 310.734375 904.691406 311.417969 904.070312 312.132812 903.484375 C 312.847656 902.898438 313.589844 902.347656 314.355469 901.835938 C 315.125 901.320312 315.917969 900.847656 316.734375 900.410156 C 317.546875 899.972656 318.382812 899.578125 319.238281 899.226562 C 320.09375 898.871094 320.960938 898.5625 321.847656 898.292969 C 322.730469 898.023438 323.628906 897.800781 324.535156 897.617188 C 325.441406 897.4375 326.355469 897.304688 327.273438 897.210938 C 328.195312 897.121094 329.117188 897.078125 330.042969 897.078125 Z M 330.042969 897.078125 " fill-opacity="1" fill-rule="nonzero"/><g clip-path="url(#65800dbddf)"><path fill="#ffffff" d="M 84.183594 694.746094 L 568.84375 694.746094 C 569.882812 694.746094 570.921875 694.796875 571.957031 694.898438 C 572.992188 695 574.019531 695.152344 575.039062 695.355469 C 576.058594 695.558594 577.066406 695.8125 578.0625 696.113281 C 579.058594 696.417969 580.035156 696.765625 580.996094 697.164062 C 581.957031 697.5625 582.898438 698.007812 583.8125 698.496094 C 584.730469 698.988281 585.621094 699.523438 586.488281 700.097656 C 587.351562 700.675781 588.1875 701.296875 588.992188 701.957031 C 589.792969 702.617188 590.566406 703.3125 591.300781 704.050781 C 592.035156 704.785156 592.734375 705.554688 593.394531 706.359375 C 594.054688 707.164062 594.671875 707.996094 595.25 708.863281 C 595.828125 709.726562 596.363281 710.617188 596.851562 711.535156 C 597.34375 712.453125 597.785156 713.390625 598.183594 714.351562 C 598.582031 715.3125 598.933594 716.292969 599.234375 717.289062 C 599.535156 718.28125 599.789062 719.289062 599.992188 720.3125 C 600.195312 721.332031 600.347656 722.359375 600.449219 723.394531 C 600.550781 724.429688 600.601562 725.46875 600.601562 726.507812 C 600.601562 727.546875 600.550781 728.585938 600.449219 729.621094 C 600.347656 730.65625 600.195312 731.683594 599.992188 732.703125 C 599.789062 733.722656 599.535156 734.730469 599.234375 735.726562 C 598.933594 736.722656 598.582031 737.699219 598.183594 738.660156 C 597.785156 739.621094 597.34375 740.5625 596.851562 741.480469 C 596.363281 742.394531 595.828125 743.289062 595.25 744.152344 C 594.671875 745.015625 594.054688 745.851562 593.394531 746.65625 C 592.734375 747.460938 592.035156 748.230469 591.300781 748.964844 C 590.566406 749.699219 589.792969 750.398438 588.992188 751.058594 C 588.1875 751.71875 587.351562 752.335938 586.488281 752.914062 C 585.621094 753.492188 584.730469 754.027344 583.8125 754.515625 C 582.898438 755.007812 581.957031 755.453125 580.996094 755.847656 C 580.035156 756.246094 579.058594 756.597656 578.0625 756.898438 C 577.066406 757.203125 576.058594 757.453125 575.039062 757.65625 C 574.019531 757.859375 572.992188 758.011719 571.957031 758.113281 C 570.921875 758.214844 569.882812 758.265625 568.84375 758.265625 L 84.183594 758.265625 C 83.144531 758.265625 82.105469 758.214844 81.070312 758.113281 C 80.035156 758.011719 79.007812 757.859375 77.988281 757.65625 C 76.964844 757.453125 75.957031 757.203125 74.964844 756.898438 C 73.96875 756.597656 72.988281 756.246094 72.027344 755.847656 C 71.066406 755.453125 70.128906 755.007812 69.210938 754.515625 C 68.292969 754.027344 67.402344 753.492188 66.539062 752.914062 C 65.671875 752.335938 64.839844 751.71875 64.035156 751.058594 C 63.230469 750.398438 62.460938 749.699219 61.726562 748.964844 C 60.988281 748.230469 60.292969 747.460938 59.632812 746.65625 C 58.972656 745.851562 58.351562 745.015625 57.773438 744.152344 C 57.199219 743.289062 56.664062 742.394531 56.171875 741.480469 C 55.683594 740.5625 55.238281 739.621094 54.839844 738.660156 C 54.441406 737.699219 54.09375 736.722656 53.789062 735.726562 C 53.488281 734.730469 53.234375 733.722656 53.03125 732.703125 C 52.828125 731.683594 52.675781 730.65625 52.574219 729.621094 C 52.472656 728.585938 52.421875 727.546875 52.421875 726.507812 C 52.421875 725.46875 52.472656 724.429688 52.574219 723.394531 C 52.675781 722.359375 52.828125 721.332031 53.03125 720.3125 C 53.234375 719.289062 53.488281 718.28125 53.789062 717.289062 C 54.09375 716.292969 54.441406 715.3125 54.839844 714.351562 C 55.238281 713.390625 55.683594 712.453125 56.171875 711.535156 C 56.664062 710.617188 57.199219 709.726562 57.773438 708.863281 C 58.351562 707.996094 58.972656 707.164062 59.632812 706.359375 C 60.292969 705.554688 60.988281 704.785156 61.726562 704.050781 C 62.460938 703.3125 63.230469 702.617188 64.035156 701.957031 C 64.839844 701.296875 65.671875 700.675781 66.539062 700.097656 C 67.402344 699.523438 68.292969 698.988281 69.210938 698.496094 C 70.128906 698.007812 71.066406 697.5625 72.027344 697.164062 C 72.988281 696.765625 73.96875 696.417969 74.964844 696.113281 C 75.957031 695.8125 76.964844 695.558594 77.988281 695.355469 C 79.007812 695.152344 80.035156 695 81.070312 694.898438 C 82.105469 694.796875 83.144531 694.746094 84.183594 694.746094 Z M 84.183594 694.746094 " fill-opacity="1" fill-rule="nonzero"/></g></svg>